# File created by Blade
# Date/Time:  Fri Jan 16 19:32:17 2015
# Frame Rate: 120.000 fps
#------------------------------------------------------
:FULLY-SPECIFIED
:DEGREES
886
root 19.823024 35.557498 -20.925047 9.037979 10.496203 -0.273041
Spine -17.649228 -11.115970 -0.693070
Head 16.640883 -2.896885 8.418640
LeftShoulder -7.096649 5.100411 1.281044
LeftArm -94.452693 51.496871 -154.654330
LeftForeArm 45.129269 -0.000000 84.376220
LeftHand 11.725913 -0.000000 -23.776052
LeftHandThumb1 -26.253704 0.000000 33.147579
RightShoulder -11.734335 2.218856 -20.771503
RightArm -354.931736 48.666261 -356.801344
RightForeArm -31.041288 -0.000000 3.019993
RightHand -2.597360 0.000000 0.470359
RightHandThumb1 -24.326973 -0.000000 -32.862282
LeftUpLeg -1.589863 0.544931 1.064233
LeftLeg -6.354887 -0.000000 0.000000
LeftFoot -19.128043 27.340121 -12.570744
LeftToeBase 25.694560 -0.000000 -0.000000
RightUpLeg 0.675594 -16.290262 -1.251017
RightLeg -4.093159 -0.000000 0.000000
RightFoot -21.977120 -24.663029 20.311934
RightToeBase 24.183249 -0.000000 -0.000000
887
root 19.823805 35.558570 -20.925436 9.042899 10.456006 -0.301339
Spine -17.612856 -11.051866 -0.667688
Head 16.478122 -2.980724 8.438287
LeftShoulder -7.166851 4.974866 1.292247
LeftArm -94.117483 51.516667 -154.207468
LeftForeArm 44.984396 -0.000000 82.833675
LeftHand 11.690452 -0.000000 -24.401358
LeftHandThumb1 -26.253704 0.000000 33.147579
RightShoulder -11.707650 2.276463 -20.785159
RightArm -355.023635 48.620127 -356.834970
RightForeArm -31.095672 -0.000000 2.995565
RightHand -2.598883 0.000000 0.489031
RightHandThumb1 -24.326973 -0.000000 -32.862282
LeftUpLeg -1.595457 0.603838 1.081957
LeftLeg -6.353631 -0.000000 0.000000
LeftFoot -19.132181 27.338606 -12.560755
LeftToeBase 25.638286 -0.000000 -0.000000
RightUpLeg 0.644628 -16.287620 -1.219841
RightLeg -4.076846 -0.000000 0.000000
RightFoot -21.976766 -24.646774 20.349180
RightToeBase 24.226014 -0.000000 -0.000000
888
root 19.824517 35.560518 -20.930840 9.094935 10.417687 -0.311116
Spine -17.623634 -10.963805 -0.658306
Head 16.327142 -3.101120 8.436365
LeftShoulder -7.231555 4.866025 1.295057
LeftArm -93.806243 51.577178 -153.782778
LeftForeArm 44.776270 -0.000000 81.127645
LeftHand 11.578447 -0.000000 -24.888364
LeftHandThumb1 -26.253704 0.000000 33.147579
RightShoulder -11.717576 2.284645 -20.786783
RightArm -355.107015 48.664093 -356.852615
RightForeArm -31.163669 -0.000000 3.009544
RightHand -2.651055 0.000000 0.457042
RightHandThumb1 -24.326973 -0.000000 -32.862282
LeftUpLeg -1.658204 0.654353 1.070942
LeftLeg -6.357836 -0.000000 0.000000
LeftFoot -19.115511 27.415233 -12.543673
LeftToeBase 25.659609 -0.000000 -0.000000
RightUpLeg 0.561650 -16.276448 -1.195872
RightLeg -4.058340 -0.000000 0.000000
RightFoot -21.941925 -24.641300 20.343556
RightToeBase 24.175163 -0.000000 -0.000000
889
root 19.825254 35.561194 -20.933426 9.141824 10.376051 -0.319594
Spine -17.640931 -10.859160 -0.646979
Head 16.189449 -3.222421 8.410124
LeftShoulder -7.321755 4.752781 1.278059
LeftArm -93.537711 51.661380 -153.332852
LeftForeArm 44.807752 -0.000000 79.336073
LeftHand 11.524915 0.000000 -25.337862
LeftHandThumb1 -26.253704 0.000000 33.147579
RightShoulder -11.732049 2.284411 -20.798357
RightArm -355.204684 48.740011 -356.874335
RightForeArm -31.226882 -0.000000 3.027931
RightHand -2.716965 0.000000 0.376810
RightHandThumb1 -24.326973 -0.000000 -32.862282
LeftUpLeg -1.710224 0.715163 1.066666
LeftLeg -6.350368 -0.000000 0.000000
LeftFoot -19.103533 27.418480 -12.516796
LeftToeBase 25.616137 -0.000000 -0.000000
RightUpLeg 0.498793 -16.279048 -1.178957
RightLeg -4.055415 -0.000000 0.000000
RightFoot -21.903461 -24.610841 20.293819
RightToeBase 24.189142 -0.000000 -0.000000
890
root 19.825550 35.561489 -20.934085 9.191763 10.328246 -0.330931
Spine -17.667410 -10.722211 -0.643294
Head 16.062516 -3.359933 8.389419
LeftShoulder -7.386715 4.575576 1.282376
LeftArm -93.295555 51.680805 -152.884247
LeftForeArm 44.743597 -0.000000 77.458821
LeftHand 11.462758 -0.000000 -25.917405
LeftHandThumb1 -26.253704 0.000000 33.147579
RightShoulder -11.752439 2.311166 -20.795150
RightArm -355.358701 48.731896 -356.974963
RightForeArm -31.264676 -0.000000 3.048448
RightHand -2.781623 -0.000000 0.323352
RightHandThumb1 -24.326973 -0.000000 -32.862282
LeftUpLeg -1.749667 0.751348 1.079132
LeftLeg -6.348204 -0.000000 0.000000
LeftFoot -19.138044 27.333991 -12.577099
LeftToeBase 25.647253 -0.000000 -0.000000
RightUpLeg 0.442602 -16.296295 -1.155926
RightLeg -4.073101 -0.000000 0.000000
RightFoot -21.880268 -24.567763 20.294096
RightToeBase 24.230424 -0.000000 -0.000000
891
root 19.828311 35.561588 -20.934709 9.256957 10.292244 -0.323958
Spine -17.720716 -10.593752 -0.646655
Head 15.953114 -3.474196 8.357128
LeftShoulder -7.491692 4.418831 1.266659
LeftArm -93.154867 51.789365 -152.492768
LeftForeArm 44.823570 -0.000000 75.509916
LeftHand 11.503717 0.000000 -26.422597
LeftHandThumb1 -26.253704 0.000000 33.147579
RightShoulder -11.750749 2.334908 -20.804373
RightArm -355.558912 48.698363 -357.112231
RightForeArm -31.228776 -0.000000 3.053536
RightHand -2.764805 -0.000000 0.301407
RightHandThumb1 -24.326973 -0.000000 -32.862282
LeftUpLeg -1.801424 0.810088 1.049532
LeftLeg -6.378919 -0.000000 0.000000
LeftFoot -19.103363 27.404285 -12.540265
LeftToeBase 25.612042 -0.000000 -0.000000
RightUpLeg 0.388153 -16.310196 -1.153996
RightLeg -4.106409 -0.000000 0.000000
RightFoot -21.827674 -24.532671 20.261258
RightToeBase 24.188205 -0.000000 -0.000000
